/* XPM */
static char *_b623777f0c44889802018a15ddd712dVe9OjdAHUW1w4XaN[] = {
/* columns rows colors chars-per-pixel */
"64 64 256 2 ",
"   c black",
".  c #0000A8",
"X  c #00A800",
"o  c #00A8A8",
"O  c #A80000",
"+  c #A800A8",
"@  c #A85400",
"#  c #4C4436",
"$  c gray33",
"%  c #5454FC",
"&  c #524A42",
"*  c #5E5246",
"=  c #736352",
"-  c #685D4C",
";  c #FCFC54",
":  c gray99",
">  c #ECECEC",
",  c gainsboro",
"<  c #D0D0D0",
"1  c #C0C0C0",
"2  c #B4B4B4",
"3  c gray66",
"4  c #989898",
"5  c gray55",
"6  c #7C7C7C",
"7  c gray44",
"8  c #646464",
"9  c gray33",
"0  c #484848",
"q  c gray22",
"w  c #2C2C2C",
"e  c #202020",
"r  c #FC0000",
"t  c #EC0000",
"y  c #E00000",
"u  c #D40000",
"i  c #C80000",
"p  c #BC0000",
"a  c #B00000",
"s  c #A40000",
"d  c #980000",
"f  c #880000",
"g  c #7C0000",
"h  c #700000",
"j  c #640000",
"k  c #580000",
"l  c #4C0000",
"z  c #400000",
"x  c #FCD8D8",
"c  c #FCB8B8",
"v  c #FC9C9C",
"b  c #FC7C7C",
"n  c #FC5C5C",
"m  c #FC4040",
"M  c #FC2020",
"N  c #FC0000",
"B  c #FCA85C",
"V  c #FC9840",
"C  c #FC8820",
"Z  c #FC7800",
"A  c #E46C00",
"S  c #CC6000",
"D  c #B45400",
"F  c #9C4C00",
"G  c #FCFCD8",
"H  c #FCFCB8",
"J  c #FCFC9C",
"K  c #FCFC7C",
"L  c #FCF85C",
"P  c #FCF440",
"I  c #FCF420",
"U  c #FCF400",
"Y  c #E4D800",
"T  c #CCC400",
"R  c #B4AC00",
"E  c #9C9C00",
"W  c #848400",
"Q  c #706C00",
"!  c #585400",
"~  c #404000",
"^  c #849C7B",
"/  c #738C6B",
"(  c #6B7B63",
")  c #637352",
"_  c #5A6B52",
"`  c #525A4A",
"'  c #4A5242",
"]  c #425239",
"[  c #394A39",
"{  c #313931",
"}  c #313929",
"|  c #293129",
" . c #293121",
".. c #212921",
"X. c #182118",
"o. c #181818",
"O. c #00FC00",
"+. c #00EC00",
"@. c #00E000",
"#. c #00D400",
"$. c #04C800",
"%. c #04BC00",
"&. c #04B000",
"*. c #04A400",
"=. c #049800",
"-. c #048800",
";. c #047C00",
":. c #047000",
">. c #046400",
",. c #045800",
"<. c #044C00",
"1. c #044000",
"2. c #C8BFB2",
"3. c #A89A85",
"4. c #9A8C77",
"5. c #7CFCF8",
"6. c #5CFCFC",
"7. c #40FCFC",
"8. c #20FCFC",
"9. c #00FCFC",
"0. c #00E4E4",
"q. c #00CCCC",
"w. c #00B4B4",
"e. c #009C9C",
"r. c #008484",
"t. c #007070",
"y. c #005858",
"u. c #004040",
"i. c #94846B",
"p. c #8C7B67",
"a. c #847B63",
"s. c #81735D",
"d. c #7B6B5A",
"f. c #007CCC",
"g. c #006CB4",
"h. c #005C9C",
"j. c #736B5A",
"k. c #736B52",
"l. c #9C9CFC",
"z. c #7C80FC",
"x. c #5C60FC",
"c. c #4040FC",
"v. c #2024FC",
"b. c #0004FC",
"n. c #0000FC",
"m. c #0000EC",
"M. c #0000E0",
"N. c #0000D4",
"B. c #0000C8",
"V. c #0000BC",
"C. c #0000B0",
"Z. c #0000A4",
"A. c #000098",
"S. c #000088",
"D. c #00007C",
"F. c #000070",
"G. c #000064",
"H. c #000058",
"J. c #00004C",
"K. c #000040",
"L. c #282828",
"P. c #FCE034",
"I. c #FCD424",
"U. c #FCCC18",
"Y. c #FCC008",
"T. c #FCB400",
"R. c #B420FC",
"E. c #A800FC",
"W. c #9800E4",
"Q. c #8000CC",
"!. c #7400B4",
"~. c #60009C",
"^. c #500084",
"/. c #440070",
"(. c #340058",
"). c #280040",
"_. c #FCD8FC",
"`. c #FCB8FC",
"'. c #FC9CFC",
"]. c #FC7CFC",
"[. c #FC5CFC",
"{. c #FC40FC",
"}. c #FC20FC",
"|. c #FC00FC",
" X c #E000E4",
".X c #C800CC",
"XX c #B400B4",
"oX c #9C009C",
"OX c #840084",
"+X c #6C0070",
"@X c #580058",
"#X c #400040",
"$X c #FCE8DC",
"%X c #FCE0D0",
"&X c #FCD8C4",
"*X c #FCD4BC",
"=X c #FCCCB0",
"-X c #FCC4A4",
";X c #FCBC9C",
":X c #FCB890",
">X c #FCB080",
",X c #FCA470",
"<X c #FC9C60",
"1X c #F0945C",
"2X c #E88C58",
"3X c #DC8854",
"4X c #D08050",
"5X c #C87C4C",
"6X c #BC7848",
"7X c #B47044",
"8X c #A86840",
"9X c #A0643C",
"0X c #9C6038",
"qX c #905C34",
"wX c #885830",
"eX c #80502C",
"rX c #744C28",
"tX c #6C4824",
"yX c #5C4020",
"uX c #543C1C",
"iX c #483818",
"pX c #403018",
"aX c #382C14",
"sX c #28200C",
"dX c #600064",
"fX c #006464",
"gX c #006060",
"hX c #00001C",
"jX c #00002C",
"kX c #302410",
"lX c #480048",
"zX c #500050",
"xX c #000034",
"cX c gray11",
"vX c #4C4C4C",
"bX c gray36",
"nX c gray25",
"mX c gray19",
"MX c #343434",
"NX c #2E2B22",
"BX c #B8E8E8",
"VX c #9CDCDC",
"CX c #74C8C8",
"ZX c #48C0C0",
"AX c #20B4B4",
"SX c #20B0B0",
"DX c #00A4A4",
"FX c #009898",
"GX c #008C8C",
"HX c #008484",
"JX c #007C7C",
"KX c #007878",
"LX c #007474",
"PX c #007070",
"IX c #006C6C",
"UX c #980088",
/* pixels */
"  sXsXsXsXsXsXsXsXsXsXsXsXkXkXsXsXkXo.sXL.kXkXkXsXkXkXsXsXsX    sXsXsXsXsXkXsXkXkXsXkXkXkXsXsXsXsX    sXsXsXsXkXL.L.sXsXsXsX    ",
"  sXo.o.aXaXpX} aXaXL.L.kXpXiXpX} } } iXiX} iXpX} } } } o.sX    sXsXe kX} } iXiX} uXiX# } } kXo.sX    sXsXe L.} pX} } aXL.o.sX  ",
"  sX} } } pXpX} aXkX} L.o.} } } } } } iX# # iX# & # # # } kXsX  sXkX} } # } pXiXpXyX# & # iXpX} sXsX  o.kX} } } } uXq } } pXsXsX",
"  sX# & # } } aXaXkXkXL.L.iX} L.iXpXiXpXiXiXuX* # & # & # q sX  sXaX} } } aXaX} uXuX# # # } } } sXsX  kX} iX} q q uX# q } } kXsX",
"  sX# & q kXL.kXkXL.kXkXL.iXL.L.iXiXiXpXpX} yX* iX* * * * * sX    L.} iX} } } } tXiX# # & } } aXsXsX  kXiX# } } iXiX} # # # sXsX",
"  sX# # pXL.L.aXaXkXkXkXL.pXkX} } } pXpXaXpX} } iX} } yX* * sX  sX} q # # # # # iXiX} # q q q } sXsX  } } q iXpX} } } } } q sX  ",
"  o.# # L.aXaXcXsX                                        o.o.                                              o.sXkX} } } pX# sXsX",
"  } # # pXL.L.sX                                                                                                sXNX} } } } kXsX",
"  aX} kXaXL.L.                                                                                                  ..kX} iXiX} sX  ",
"  sXaXaXkXkXe       o.o.o.o.o.o.o.o.o.                                                      o.o.o.o.o.o.o.o.o.e q # aXaXpXL.sXsX",
"  sXL.L.kXsXkX      o.e e e e e e e e   3 3 3 3 3 3 3 3 3 3 3 3 3 3 3 3 3 3 3 3 3 3 3 3 3 3 e e e e e e e e w mX0 uXo.o.o.L.sXsX",
"  sXL.L.o.o.o.      o.e mXmXmXmXmXmXmXmXo., , 0 e e e e e e e e e e e e e e e e e e 0 , , o.mXmXmXmXmXmXmXmXMXq $ } o.o.sXe sXsX",
"  sXe e o.o.o.      o.e mXmXmXmXmXmXmXmXo.1 , 4 o.o.o.o.o.o.o.o.o.o.o.o.o.o.o.o.o.o.4 , 1 o.mXmXmXmXmXmXmXmXq nX$ } sXo.o.o.sXsX",
"  sXsXsXo.sXsX      o.e mXmXmXmXmXmXmXmXmXo., , nXo.o.o.o.o.o.o.o.o.o.o.o.o.o.o.o.nX, , o.mXmXmXmXmXmXmXmXmXq nX$ } sXsXsXsX    ",
"          sXsX      o.e mXmXmXmXmXmXmXmXmXmXo., 1 o.o.o.o.o.o.o.o.o.o.o.o.o.o.o.o.1 , o.mXmXmXmXmXmXmXmXmXmXq nX$ aX            ",
"                    o.e mXmXmXmXmXmXmXmXmXmXo., , 0 o.o.o.o.o.o.o.o.o.o.o.o.o.o.0 , , o.mXmXmXmXmXmXmXmXmXmXq nX$ o.            ",
"sXsXsXsXsX          o.e mXmXmXmXmXmXmXmXmXmXmXo., 1 o.o.o.o.o.o.o.o.o.o.o.o.o.o.1 , o.mXmXmXmXmXmXmXmXmXmXmXq nX$     sXsXsXsX  ",
"kXkXkXsXsX          o.e mXmXmXmXmXmXmXmXmXmXmXo., , e o.o.o.o.o.o.o.o.o.o.o.o.e , , o.mXmXmXmXmXmXmXmXmXmXmXq nX$ o.o.aX} pXsXsX",
"} uXiXpXkXsX            mXmXmXmXmXmXmXmXmXmXmXmXo., 6 o.o.o.o.o.o.o.o.o.o.o.o.6 , o.mXmXmXmXmXmXmXmXmXmXmXmXo.o.$ e o.} q iXL.sX",
"} # # # pXsX          3 o.o.mXmXmXmXmXmXmXmXmXmXo., 2 o.o.o.o.o.o.o.o.o.o.o.o.2 , o.mXmXmXmXmXmXmXmXmXmXo.o., o.$ q kXkXiXL...o.",
"L.} } } pXsXsX        3 , 1 o.mXmXmXmXmXmXmXmXmXo., , o.o.o.o.o.o.o.o.o.o.o.o., , o.mXmXmXmXmXmXmXmXmXo.1 , , o.$ - iXkXpX} } aX",
"sXpXkXL.kXsXsX        3 , , , o.o.mXmXmXmXmXmXmXo., , L.o.o.o.o.o.o.o.o.o.o.L., , o.mXmXmXmXmXmXmXo.o., , , , o.$ [ kXaXiXL.kXo.",
"o.o.kXaXL.            3 0 4 , , , o.o.mXmXmXmXmXo., , vXo.o.o.o.o.o.o.o.o.o.vX, , o.mXmXmXmXmXo.o., , , 4 0 , o.$ iXo.} } L.o.sX",
"o.kXkXaXL.sX          3 e o.nX1 , , , o.o.o.o.o.o., , 8 o.o.o.o.o.o.o.o.o.o.8 , , o.o.o.o.o.o., , , 1 nXo.e , o.$ rXo.} } L.kXsX",
"o.aXaXkXkXsXsX        3 e o.o.o.0 1 , , , , , , , , , 6 o.o.o.o.o.o.o.o.o.o.6 , , , , , , , , , 1 0 o.o.o.e , o.$ uXL.pXuXe kXsX",
"o.o.kXaXL.sXsX        3 e o.o.o.o.o.e 6 2 , , , , , , 6 o.o.o.o.o.o.o.o.o.o.6 , , , , , , 2 6 e o.o.o.o.o.e , o.$ } aXiXuX} kXkX",
"o.kXaXaXaXsXsX        3 e o.o.o.o.o.o.o.o.o.L.vX8 6 6 0 o.o.o.o.$ e o.o.o.o.0 6 6 8 vXL.o.o.o.o.o.o.o.o.o.e , o.$ uXo.kXpXuXpX} ",
"L.} L.e o.            3 e o.o.o.o.o.o.o.o.o.o.o.o.o.o.o.o.o.o.$ , 2 o.o.o.o.o.o.o.o.o.o.o.o.o.o.o.o.o.o.o.e , o.$ nXo.o.L.L.L.L.",
"e o.o.o.o.            3 e o.o.o.o.o.o.o.o.o.o.o.o.o.o.o.o.o.$ , 1 e o.vXo.o.o.o.o.o.o.o.o.o.o.o.o.o.o.o.o.e , o.$ q o.o.o.o.o.L.",
"o.o.sXsXsX            3 e o.o.o.o.o.o.o.o.o.o.o.o.o.o.o.o.vX, , e o.2 , $ o.o.o.o.o.o.o.o.o.o.o.o.o.o.o.o.e , o.$ aXsXo.o.sXsXo.",
"sXsXsXsXsX            3 e o.o.o.o.o.o.o.o.o.o.o.o.o.o.o.o.o.2 , $ 2 , , , $ o.o.o.o.o.o.o.o.o.o.o.o.o.o.o.e , o.$ sXsXsXsXsXsXsX",
"                      3 e o.o.o.o.o.o.o.o.o.o.o.o.o.o.e 2 e o.2 , , $ e 1 , $ o.o.o.o.o.o.o.o.o.o.o.o.o.o.e , o.$ sX            ",
"                      3 e o.o.o.o.o.o.o.o.o.o.o.o.o.o.$ , 1 e $ , , 2 o.e 2 e o.o.o.o.o.o.o.o.o.o.o.o.o.o.e , o.$               ",
"kXkXkXkXkXo.sX        3 e o.o.o.o.o.o.o.o.o.o.o.o.o.o.o.$ , , , 2 $ , 2 o.o.o.o.o.o.o.o.o.o.o.o.o.o.o.o.o.e , o.$       o.o.kXkX",
"# # # q pXaXkX        3 e o.o.o.o.o.o.o.o.o.o.o.o.o.o.o.o.$ , 2 o.e , , vXo.o.o.o.o.o.o.o.o.o.o.o.o.o.o.o.e , o.$ o.  kX} } q } ",
"# # } } } pXaX        3 e o.o.o.o.o.o.o.o.o.o.o.o.o.o.o.o.o.vXo.e 1 , $ o.o.o.o.o.o.o.o.o.o.o.o.o.o.o.o.o.e , o.$ aX  o.L.} } q ",
"# q } } } pXaX        3 e o.o.o.o.o.o.o.o.o.o.o.o.o.o.o.o.o.o.o.2 , $ o.o.o.o.o.o.o.o.o.o.o.o.o.o.o.o.o.o.e , o.$ sX  o.L.} } q ",
"} } pXaXL.} }         3 e o.o.o.o.o.o.o.o.o.L.vX8 6 6 0 o.o.o.o.e $ o.o.o.o.0 6 6 8 vXL.o.o.o.o.o.o.o.o.o.e , o.$ aX  sXkX} } L.",
"pXpXaXaXaXpXpX        3 e o.o.o.o.o.e 6 2 , , , , , , 6 o.o.o.o.o.o.o.o.o.o.6 , , , , , , 2 6 e o.o.o.o.o.e , o.$ iX  sXaXpX} } ",
"aXpXaXaXpXaXkX        3 e o.o.o.0 1 , , , , , , , , , 6 o.o.o.o.o.o.o.o.o.o.6 , , , , , , , , , 1 0 o.o.o.e , o.$ aX  sXkX} } L.",
"L.} iXaXkXL.L.        3 e o.nX1 , , , o.o.o.o.o.o., , 8 o.o.o.o.o.o.o.o.o.o.8 , , o.o.o.o.o.o., , , 1 nXo.e , o.$ aX  sXkXkXL.L.",
"L.L.L.L.L.aXkX        3 0 4 , , , o.o.mXmXmXmXmXo., , vXo.o.o.o.o.o.o.o.o.o.vX, , o.mXmXmXmXmXo.o., , , 4 0 , o.$ }   sXsXo.o.sX",
"L.L.L.L.L.aXkX        3 , , , o.o.mXmXmXmXmXmXmXo., , L.o.o.o.o.o.o.o.o.o.o.L., , o.mXmXmXmXmXmXo.o.o., , , , o.$ }   sXsXo.o.sX",
"aX} L.kXkXL.L.        3 , 1 o.mXmXmXmXmXmXmXmXmXo., , o.o.o.o.o.o.o.o.o.o.o.o., , o.mXmXmXmXmXmXmXmXmXo.1 , , o.$ }   sXo.} } } ",
"q iXiXuX} L.kX        3 o.o.mXmXmXmXmXmXmXmXmXmXo., 2 o.o.o.o.o.o.o.o.o.o.o.o.2 , o.mXmXmXmXmXmXmXmXmXmXo.o., o.$ aX  sXkXaX} q ",
"pXiXpXaXaXaXkX          mXmXmXmXmXmXmXmXmXmXmXmXo., 6 o.o.o.o.o.o.o.o.o.o.o.o.6 , o.mXmXmXmXmXmXmXmXmXmXmXmXo.o.$ o.  sXaXkX} } ",
"} pXaXaXpXL.L.      o.e mXmXmXmXmXmXmXmXmXmXmXo., , e o.o.o.o.o.o.o.o.o.o.o.o.e , , o.mXmXmXmXmXmXmXmXmXmXmXq nX$ o.  o.L.aXL.L.",
"} aXpX} q pXkX      o.e mXmXmXmXmXmXmXmXmXmXmXo., 1 o.o.o.o.o.o.o.o.o.o.o.o.o.o.1 , o.mXmXmXmXmXmXmXmXmXmXmXq nX$     o.L.kX} q ",
"} aX} } # pXkX      o.e mXmXmXmXmXmXmXmXmXmXo., , 0 o.o.o.o.o.o.o.o.o.o.o.o.o.o.0 , , o.mXmXmXmXmXmXmXmXmXmXq nX$     o.L.aXq & ",
"uXL.} q } kXe       o.e mXmXmXmXmXmXmXmXmXmXo., 1 o.o.o.o.o.o.o.o.o.o.o.o.o.o.o.o.1 , o.mXmXmXmXmXmXmXmXmXmXq nX$ o.  o.L.aXq & ",
"e o.} } L.o.o.      o.e mXmXmXmXmXmXmXmXmXo., , nXo.o.o.o.o.o.o.o.o.o.o.o.o.o.o.o.nX, , o.mXmXmXmXmXmXmXmXmXq nX$ o.  o.L.kXL.L.",
"o.e e o.o.o.sX      o.e mXmXmXmXmXmXmXmXo.1 , 4 o.o.o.o.o.o.o.o.o.o.o.o.o.o.o.o.o.o.4 , 1 o.mXmXmXmXmXmXmXmXq 0 bXsX  sXo.o.o.o.",
"sXsXsXsX            o.e mXmXmXmXmXmXmXmXo., , 0 e e e e e e e e e e e e e e e e e e 0 , , o.mXmXmXmXmXmXmXmXnX0 bXaX    sXsXsXsX",
"                    o.w mXq q q q q q o., , , , , , , , , , , , , , , , , , , , , , , , , , o.q q q q q q nXnXvX8 aX            ",
"                    e mXq nXnXnXnXnXnXo.o.o.o.o.o.o.o.o.o.o.o.o.o.o.o.o.o.o.o.o.o.o.o.o.o.o.o.nXnXnXnXnX0 0 vX$ 7 uX            ",
"sXsXsXsXsX        e q 0 $ $ $ $ $ $ $ $ $ $ $ $ $ $ $ $ $ $ $ $ $ $ $ $ $ $ $ $ $ $ $ $ $ $ $ $ $ $ $ $ bXbX8 7 7 pX        sXsX",
"q } } iXpXo.o.        sXnXnX- nX} rXuX}   sXnXnXnXrX- - rX- nX      } nXyX} nXnX- nXnX0XrXuXnXnXyXnXq } - - 0 tXtXsX    sXkXiXuX",
"q # L.L.} } kXsX    o.L.L.kXaXaXaXsXsX  sXkXL.L.L.L.L.} aXL.    sXe L.aXL.e o.  o.      o.} } L.L.} q L.L.kXL.L.        o.L.} q ",
"L.} L.L.pX} } o.    o.} } L.L.L.L.sXsX  sXkXkXaXkXkXpXaXkXL.sX    e } L.o.  sX} # q } } } kX} } q } L.L.L.L.L.L.        e } L.L.",
"kXkX} } kXL.L.sX    sXkXkXaXkXkXkXsXsX  sXkXkXL.e L.aXkXL.L.sX  sXkXL.o.  sXo.} e o.o.kXaXaXpX} } pXaXaXkXo.o.e         o.L.L.L.",
"kXaXL.L.L.L.o.sX      o.o.e kXkXo.sX    sXkXo.o.o.o.o.kXkXL.      sX    o.pXiXkXo.o.kXkXL.kXkXkXL.kXaXL.e     sX      sXo.L.aXaX",
"L.aXL.L.L.L.o.sX      e e o.aXkXsX      sXkXo.o.o.sXsXo.sXL.            L.yXiXkXL.kXL.L.L.L.L.aXL.kXkXL.e             sXo.L.pXpX",
"L.L.L.L.o.sXsX        sXsXsXsXsXsX        sXsXo.sXsXsXsXsXsXsX      sXsXo.kXkXsXo.o.o.sXo.sXsXkXsXsXkXL.e sXsXsX      sXe sXsXo.",
"sX  sXsX                  sXsXsXsX          sX  sXsX  sX              sXsXsXsXsXsXsXsXsXsXsXsXsX      sXsXsX              sXsXsX"
};
