/* XPM */
static char *_ebf68e3462e41a3e054c82fc52d948aOer5DQ3VmL9LDfoJ[] = {
/* columns rows colors chars-per-pixel */
"64 64 256 2 ",
"   c black",
".  c #0000A8",
"X  c #00A800",
"o  c #00A8A8",
"O  c #A80000",
"+  c #A800A8",
"@  c #A85400",
"#  c #4C4436",
"$  c gray33",
"%  c #5454FC",
"&  c #524A42",
"*  c #5E5246",
"=  c #736352",
"-  c #685D4C",
";  c #FCFC54",
":  c gray99",
">  c #ECECEC",
",  c gainsboro",
"<  c #D0D0D0",
"1  c #C0C0C0",
"2  c #B4B4B4",
"3  c gray66",
"4  c #989898",
"5  c gray55",
"6  c #7C7C7C",
"7  c gray44",
"8  c #646464",
"9  c gray33",
"0  c #484848",
"q  c gray22",
"w  c #2C2C2C",
"e  c #202020",
"r  c #FC0000",
"t  c #EC0000",
"y  c #E00000",
"u  c #D40000",
"i  c #C80000",
"p  c #BC0000",
"a  c #B00000",
"s  c #A40000",
"d  c #980000",
"f  c #880000",
"g  c #7C0000",
"h  c #700000",
"j  c #640000",
"k  c #580000",
"l  c #4C0000",
"z  c #400000",
"x  c #FCD8D8",
"c  c #FCB8B8",
"v  c #FC9C9C",
"b  c #FC7C7C",
"n  c #FC5C5C",
"m  c #FC4040",
"M  c #FC2020",
"N  c #FC0000",
"B  c #FCA85C",
"V  c #FC9840",
"C  c #FC8820",
"Z  c #FC7800",
"A  c #E46C00",
"S  c #CC6000",
"D  c #B45400",
"F  c #9C4C00",
"G  c #FCFCD8",
"H  c #FCFCB8",
"J  c #FCFC9C",
"K  c #FCFC7C",
"L  c #FCF85C",
"P  c #FCF440",
"I  c #FCF420",
"U  c #FCF400",
"Y  c #E4D800",
"T  c #CCC400",
"R  c #B4AC00",
"E  c #9C9C00",
"W  c #848400",
"Q  c #706C00",
"!  c #585400",
"~  c #404000",
"^  c #849C7B",
"/  c #738C6B",
"(  c #6B7B63",
")  c #637352",
"_  c #5A6B52",
"`  c #525A4A",
"'  c #4A5242",
"]  c #425239",
"[  c #394A39",
"{  c #313931",
"}  c #313929",
"|  c #293129",
" . c #293121",
".. c #212921",
"X. c #182118",
"o. c #181818",
"O. c #00FC00",
"+. c #00EC00",
"@. c #00E000",
"#. c #00D400",
"$. c #04C800",
"%. c #04BC00",
"&. c #04B000",
"*. c #04A400",
"=. c #049800",
"-. c #048800",
";. c #047C00",
":. c #047000",
">. c #046400",
",. c #045800",
"<. c #044C00",
"1. c #044000",
"2. c #C8BFB2",
"3. c #A89A85",
"4. c #9A8C77",
"5. c #7CFCF8",
"6. c #5CFCFC",
"7. c #40FCFC",
"8. c #20FCFC",
"9. c #00FCFC",
"0. c #00E4E4",
"q. c #00CCCC",
"w. c #00B4B4",
"e. c #009C9C",
"r. c #008484",
"t. c #007070",
"y. c #005858",
"u. c #004040",
"i. c #94846B",
"p. c #8C7B67",
"a. c #847B63",
"s. c #81735D",
"d. c #7B6B5A",
"f. c #007CCC",
"g. c #006CB4",
"h. c #005C9C",
"j. c #736B5A",
"k. c #736B52",
"l. c #9C9CFC",
"z. c #7C80FC",
"x. c #5C60FC",
"c. c #4040FC",
"v. c #2024FC",
"b. c #0004FC",
"n. c #0000FC",
"m. c #0000EC",
"M. c #0000E0",
"N. c #0000D4",
"B. c #0000C8",
"V. c #0000BC",
"C. c #0000B0",
"Z. c #0000A4",
"A. c #000098",
"S. c #000088",
"D. c #00007C",
"F. c #000070",
"G. c #000064",
"H. c #000058",
"J. c #00004C",
"K. c #000040",
"L. c #282828",
"P. c #FCE034",
"I. c #FCD424",
"U. c #FCCC18",
"Y. c #FCC008",
"T. c #FCB400",
"R. c #B420FC",
"E. c #A800FC",
"W. c #9800E4",
"Q. c #8000CC",
"!. c #7400B4",
"~. c #60009C",
"^. c #500084",
"/. c #440070",
"(. c #340058",
"). c #280040",
"_. c #FCD8FC",
"`. c #FCB8FC",
"'. c #FC9CFC",
"]. c #FC7CFC",
"[. c #FC5CFC",
"{. c #FC40FC",
"}. c #FC20FC",
"|. c #FC00FC",
" X c #E000E4",
".X c #C800CC",
"XX c #B400B4",
"oX c #9C009C",
"OX c #840084",
"+X c #6C0070",
"@X c #580058",
"#X c #400040",
"$X c #FCE8DC",
"%X c #FCE0D0",
"&X c #FCD8C4",
"*X c #FCD4BC",
"=X c #FCCCB0",
"-X c #FCC4A4",
";X c #FCBC9C",
":X c #FCB890",
">X c #FCB080",
",X c #FCA470",
"<X c #FC9C60",
"1X c #F0945C",
"2X c #E88C58",
"3X c #DC8854",
"4X c #D08050",
"5X c #C87C4C",
"6X c #BC7848",
"7X c #B47044",
"8X c #A86840",
"9X c #A0643C",
"0X c #9C6038",
"qX c #905C34",
"wX c #885830",
"eX c #80502C",
"rX c #744C28",
"tX c #6C4824",
"yX c #5C4020",
"uX c #543C1C",
"iX c #483818",
"pX c #403018",
"aX c #382C14",
"sX c #28200C",
"dX c #600064",
"fX c #006464",
"gX c #006060",
"hX c #00001C",
"jX c #00002C",
"kX c #302410",
"lX c #480048",
"zX c #500050",
"xX c #000034",
"cX c gray11",
"vX c #4C4C4C",
"bX c gray36",
"nX c gray25",
"mX c gray19",
"MX c #343434",
"NX c #2E2B22",
"BX c #B8E8E8",
"VX c #9CDCDC",
"CX c #74C8C8",
"ZX c #48C0C0",
"AX c #20B4B4",
"SX c #20B0B0",
"DX c #00A4A4",
"FX c #009898",
"GX c #008C8C",
"HX c #008484",
"JX c #007C7C",
"KX c #007878",
"LX c #007474",
"PX c #007070",
"IX c #006C6C",
"UX c #980088",
/* pixels */
"                                                                                                                                ",
"w w w w w w w w w w w w MXw MXw w w w w w w w MXw w w w w w w w w w MXw w w w w w w w w w w w w w MXw MXw w w w w w w w MXw w w ",
"w MXw w w w w w w w w w w MXw MXw w w w w w w w MXw w w w w w w w w w MXw w w w w MXw w w w w w w w MXw MXw w w w w w w w MXw w ",
"w w w w w w w MXw w w MXw w MXw w w w w MXw w w w MXw w w w w MXw w w w MXw w w MXw MXw MXw w w MXw w MXw w w w w MXw w w w w w ",
"w w w w MXw MXw MXw MXw w w w w w w w w MXMXw w MXw w w w w w MXMXw w MXw w w w w w w MXw MXw MXw w w w w w w w w MXMXw w w MXw ",
"cXw w MXw w cXcXcXcXcXcXcXcXcXcXcXcXcXcXcXcXcXcXcXcXcXcXcXcXcXcXcXcXcXcXcXcXcXcXcXcXcXcXcXcXcXcXcXcXcXcXcXcXcXcXcXcXw w w MXMXcX",
"0 w w w MXw cXo.o.o.o.o.o.o.o.o.o.o.o.o.o.o.o.o.o.o.o.o.o.o.o.o.o.o.o.o.o.o.o.o.o.o.o.o.o.o.o.o.o.o.o.o.o.o.o.o.o.0 MXw w w w cX",
"0 MXw w w MXcXo.o.o.o.o.o.o.o.o.o.o.o.o.o.o.o.o.o.o.o.o.o.o.o.o.o.o.o.o.o.o.o.o.o.o.o.o.o.o.o.o.o.o.o.o.o.o.o.o.o.0 w w w w w cX",
"0 w w w MXw cXo.o.o.o.o.o.o.o.o.o.o.o.o.o.o.o.o.o.o.o.o.o.o.o.o.o.o.o.o.o.o.o.o.o.o.o.o.o.o.o.o.o.o.o.o.o.o.o.o.o.0 w w w w w cX",
"0 w w w w MXcXo.o.o.o.o.o.o.o.o.o.o.o.o.o.o.o.o.o.o.o.o.o.o.o.o.o.o.o.o.o.o.o.o.o.o.o.o.o.o.o.o.o.o.o.o.o.o.o.o.o.0 w w w w w cX",
"0 w w w w w cXo.o.o.o.o.o.o.o.o.o.o.o.o.o.o.o.o.o.o.o.o.o.o.o.o.o.o.o.o.o.o.o.o.o.o.o.o.o.o.o.o.o.o.o.o.o.o.o.o.o.0 MXw MXw w cX",
"0 w w w w MXcXo.o.o.o.o.o.o.o.o.o.o.o.o.o.o.o.o.o.o.o.o.o.o.o.o.o.o.o.o.o.o.o.o.o.o.o.o.o.o.o.o.o.o.o.o.o.o.o.o.o.0 w MXw MXw cX",
"0 w w w MXw cXo.o.o.o.o.o.o.o.o.o.o.o.o.o.o.o.o.o.o.o.o.o.o.o.o.o.o.o.o.o.o.o.o.o.o.o.o.o.o.o.o.o.o.o.o.o.o.o.o.o.0 w w MXw w cX",
"0 MXMXw w w cXo.o.o.o.o.o.o.o.o.o.o.o.o.o.o.o.o.o.o.o.o.o.o.o.o.o.o.o.o.o.o.o.o.o.o.o.o.o.o.o.o.o.o.o.o.o.o.o.o.o.0 MXMXw w w cX",
"0 w w MXw w cXo.o.o.o.o.o.o.o.o.o.o.o.o.o.o.o.o.o.o.o.o.o.o.o.o.o.o.o.o.o.o.o.o.o.o.o.o.o.o.o.o.o.o.o.o.o.o.o.o.o.0 w w w MXw cX",
"0 w MXw MXw cXo.o.o.o.o.o.o.o.o.o.o.o.o.o.o.o.o.o.o.o.o.o.o.o.o.o.o.o.o.o.o.o.o.o.o.o.o.o.o.o.o.o.o.o.o.o.o.o.o.o.0 w w w w MXcX",
"0 MXw MXw w cXo.o.o.o.o.o.o.o.o.$ e o.o.o.o.o.o.o.o.o.o.o.o.o.o.o.o.o.o.o.o.o.o.o.o.o.o.o.o.e bXo.o.o.o.o.o.o.o.o.0 w w w w w cX",
"0 w w w w w cXo.o.o.o.o.o.o.o.nX4 7 e o.o.o.o.o.o.o.o.o.o.o.o.o.o.o.o.o.o.o.o.o.o.o.o.o.o.e 6 3 bXo.o.o.o.o.o.o.o.0 w w w w MXcX",
"0 w w w w w cXo.o.o.o.o.o.o.o.e 4 5 7 e o.o.o.o.o.o.o.o.o.o.o.o.o.o.o.o.o.o.o.o.o.o.o.o.e 5 3 3 e o.o.o.o.o.o.o.o.0 w w w MXw cX",
"0 w w w w w cXo.o.o.o.o.o.o.nXe e 5 5 5 e o.o.o.o.o.o.o.o.o.o.o.o.o.o.o.o.o.o.o.o.o.o.e 4 3 3 mXcXbXo.o.o.o.o.o.o.0 MXw w w MXcX",
"0 MXw w w w cXo.o.o.o.o.o.o.7 4 nXcX5 5 5 e o.o.o.o.o.o.o.o.o.o.o.o.o.o.o.o.o.o.o.o.e 4 4 3 mX$ 2 5 o.o.o.o.o.o.o.0 w w w MXw cX",
"0 w w w MXMXcXo.o.o.o.o.o.o.e 4 4 6 q 7 5 4 nXo.o.o.o.o.o.o.o.o.o.o.o.o.o.o.o.o.o.q 4 4 7 $ 4 3 2 nXe o.o.o.o.o.o.0 w w MXw w cX",
"0 MXw w w MXcXo.o.o.o.o.o.6 7 nX5 5 5 7 0 4 4 7 o.o.o.o.o.o.o.o.o.o.o.o.o.o.o.e 7 5 4 $ 6 3 3 4 bX5 5 o.o.o.o.o.o.0 w w w MXw cX",
"0 w w w w w cXo.o.o.o.o.o.$ 4 4 5 7 7 5 5 5 4 4 3 mXo.o.o.o.o.o.o.o.o.o.o.o.cX5 5 5 5 4 4 6 6 4 2 2 bXo.o.o.o.o.o.0 w w w w w cX",
"0 MXMXw w w cXo.o.o.o.o.bXmXnX4 4 5 5 7 q 4 4 4 3 3 6 o.o.o.o.o.o.o.o.o.o.7 5 5 5 5 4 nX7 3 3 3 2 bXnX7 o.o.o.o.o.0 MXw w w w cX",
"0 w w MXw MXcXo.o.o.o.o.7 6 4 7 7 $ 7 5 5 4 4 4 3 3 3 7 o.o.o.mX$ $ cXo.$ 4 5 5 5 5 4 4 4 5 7 6 5 2 2 2 o.o.o.o.o.0 w w w w w cX",
"0 w w w MXw cXo.o.o.o.o.6 6 4 4 4 5 6 0 q 4 4 4 3 3 3 5 o.o.7 3 3 3 6 o.7 4 5 5 5 5 4 nX$ 4 3 3 2 2 5 w o.o.o.o.o.0 w w w MXw cX",
"0 w w w w w cXo.o.o.o.o.bX0 e nX7 6 5 5 5 4 4 4 3 3 3 nXo.w 2 3 3 bXo.o.e 4 5 5 5 5 4 4 4 3 4 6 bXnX$ 7 o.o.o.o.o.0 w w MXw MXcX",
"0 MXw w w w cXo.o.o.o.o.4 4 4 4 5 7 0 q 7 4 4 4 3 3 5 o.o.$ 2 3 3 0 o.o.o.6 5 5 5 5 4 7 nXbX6 4 2 2 2 2 o.o.o.o.o.0 w MXw w w cX",
"0 w w w w w cXo.o.o.o.o.6 6 5 5 5 6 7 7 q 4 4 4 3 3 $ o.o.bX2 3 3 0 o.o.o.nX5 5 5 5 4 nX7 6 4 4 3 3 5 w o.o.o.o.o.0 w w w w w cX",
"0 w w w w w cXo.o.o.o.o.bX$ $ 7 5 5 5 5 5 4 4 4 3 3 3 w w 2 2 3 3 3 cXo.o.4 5 5 5 5 4 4 4 3 3 4 5 7 bX7 o.o.o.o.o.0 MXw w w MXcX",
"0 w w w w w cXo.o.o.o.o.6 3 4 4 4 6 7 0 7 4 4 4 3 3 3 2 2 2 4 e 4 3 3 4 4 4 5 5 5 5 4 7 $ 6 4 3 2 2 2 5 o.o.o.o.o.0 w w w MXMXcX",
"0 w w w MXMXcXo.o.o.o.o.o.mX$ nXnXq $ 6 5 4 4 4 3 3 3 2 2 3 cXbX5 5 3 4 4 4 5 5 5 5 4 4 5 7 $ $ bX7 nXo.o.o.o.o.o.0 w w w w w cX",
"0 MXw w w MXcXo.o.o.o.o.o.e 7 4 4 5 5 7 o.7 4 4 3 3 3 2 4 4 cX0 o.o.5 4 4 4 5 5 5 5 7 cX7 3 3 3 2 5 w o.o.o.o.o.o.0 w w w w w cX",
"0 w w w w w cXo.o.o.o.o.o.o.nX6 6 0 cXq 6 4 4 4 3 3 3 2 cX7 $   0 bXcX4 4 4 5 5 5 5 4 5 nXmXbX5 4 bXo.o.o.o.o.o.o.0 w w w w w cX",
"0 w MXw w w cXo.o.o.o.o.o.o.o.o.e 0 5 5 5 $ 4 5 5 6 0 2 4 cXcX0 cX5 5 4 4 q 7 7 6 5 $ 4 4 3 bXe o.o.o.o.o.o.o.o.o.0 MXw w w w cX",
"0 w w MXw MXcXo.o.o.o.o.o.o.o.o.7 5 7 q 7 4 5 o.o.mX6 2 2 4 4 bXo.5 3 4 4 7 cXo.o.6 4 7 nX5 5 6 o.o.o.o.o.o.o.o.o.0 w w w w w cX",
"0 w w w MXw cXo.o.o.o.o.o.o.o.o.o.o.o.6 5 6 o.o.w 3 3 2 2 2 4   5 3 3 4 4 4 5 o.o.o.6 4 5 w o.o.o.o.o.o.o.o.o.o.o.0 w w w MXw cX",
"0 w w w w w cXo.o.o.o.o.o.o.o.o.o.e 7 6 0 $ o.o.5 3 3 2 2 5 2 3 3 3 4 4 4 4 5 7 o.o.$ $ 5 6 e o.o.o.o.o.o.o.o.o.o.0 w w MXw MXcX",
"0 MXw w w w cXo.o.o.o.o.o.o.o.o.o.o.o.o.cX4 e o.3 3 3 2 2 nX2 3 3 bX  4 4 4 5 5 o.cX4 e o.o.o.o.o.o.o.o.o.o.o.o.o.0 MXMXw w w cX",
"0 w w w w w cXo.o.o.o.o.o.o.o.o.o.o.q 5 mX7 $ o.5 3 3 2 4 nX2 3 3 5   6 4 4 5 7 o.0 7 q 4 $ o.o.o.o.o.o.o.o.o.o.o.0 w w w w w cX",
"w w w w MXw cXo.o.o.o.o.o.o.o.o.o.e 5 5 5 $ 6 o.o.$ 3 2 q 7 2 3 3 3 o.e 4 4 q o.o.7 $ 4 4 e cXo.o.o.o.o.o.o.o.o.o.0 MXw w w MXw ",
"w w w MXw w cXo.o.o.o.o.o.o.o.o.o.o.o.mXcX6 4 4 4 3 3 nXo.4 2 3 3 3 mXo.e 4 5 6 5 5 6 e q o.o.o.o.o.o.o.o.o.o.o.o.0 w w w MXMXw ",
"w w w w MXw cXo.o.o.o.o.o.o.o.o.o.o.e 6 5 7 7 4 mXmXo.o.o.o.2 3 3 3 $ o.o.o.e e 5 7 7 4 5 e o.o.o.o.o.o.o.o.o.o.o.0 MXw w w w w ",
"w MXw w w MXcXo.o.o.o.o.o.o.o.o.o.o.e 6 7 o.e 4 $ o.o.o.o.7 2 3 3 5 mXo.o.o.o.q 5 e o.7 5 e o.o.o.o.o.o.o.o.o.o.o.0 w w w w w w ",
"w w w w MXw cXo.o.o.o.o.o.o.o.o.o.o.o.o.o.o.o.nXo.o.o.o.o.o.q bXw o.o.o.o.o.o.o.q o.o.o.o.o.o.o.o.o.o.o.o.o.o.o.o.0 w w w w w w ",
"  w w w w MXcXo.o.o.o.o.o.o.o.o.o.o.o.o.o.o.o.o.o.o.o.o.o.o.o.o.o.o.o.o.o.o.o.o.o.o.o.o.o.o.o.o.o.o.o.o.o.o.o.o.o.0 w w w w w   ",
"nXw w w w w cXo.o.o.o.o.o.o.o.o.o.o.o.o.o.o.o.o.o.o.o.o.o.o.o.o.o.o.o.o.o.o.o.o.o.o.o.o.o.o.o.o.o.o.o.o.o.o.o.o.o.0 MXw MXw w   ",
"nXw w w w MXcXo.o.o.o.o.o.o.o.o.o.o.o.o.o.o.o.o.o.o.o.o.o.o.o.o.o.o.o.o.o.o.o.o.o.o.o.o.o.o.o.o.o.o.o.o.o.o.o.o.o.0 w MXw MXw   ",
"nXw w w MXw cXo.o.o.o.o.o.o.o.o.o.o.o.o.o.o.o.o.o.o.o.o.o.o.o.o.o.o.o.o.o.o.o.o.o.o.o.o.o.o.o.o.o.o.o.o.o.o.o.o.o.0 w w MXw w   ",
"nXMXMXw w w cXo.o.o.o.o.o.o.o.o.o.o.o.o.o.o.o.o.o.o.o.o.o.o.o.o.o.o.o.o.o.o.o.o.o.o.o.o.o.o.o.o.o.o.o.o.o.o.o.o.o.0 MXMXw w w   ",
"nXw w MXw w cXo.o.o.o.o.o.o.o.o.o.o.o.o.o.o.o.o.o.o.o.o.o.o.o.o.o.o.o.o.o.o.o.o.o.o.o.o.o.o.o.o.o.o.o.o.o.o.o.o.o.0 w w w MXw   ",
"nXw MXw MXw cXo.o.o.o.o.o.o.o.o.o.o.o.o.o.o.o.o.o.o.o.o.o.o.o.o.o.o.o.o.o.o.o.o.o.o.o.o.o.o.o.o.o.o.o.o.o.o.o.o.o.0 w w w w MX  ",
"nXMXw MXw w cXo.o.o.o.o.o.o.o.o.o.o.o.o.o.o.o.o.o.o.o.o.o.o.o.o.o.o.o.o.o.o.o.o.o.o.o.o.o.o.o.o.o.o.o.o.o.o.o.o.o.0 w w w w w   ",
"nXw w w w w cXo.o.o.o.o.o.o.o.o.o.o.o.o.o.o.o.o.o.o.o.o.o.o.o.o.o.o.o.o.o.o.o.o.o.o.o.o.o.o.o.o.o.o.o.o.o.o.o.o.o.0 w w w w MX  ",
"nXw w w w w cXo.o.o.o.o.o.o.o.o.o.o.o.o.o.o.o.o.o.o.o.o.o.o.o.o.o.o.o.o.o.o.o.o.o.o.o.o.o.o.o.o.o.o.o.o.o.o.o.o.o.0 w w w MXw   ",
"nXw w w w w cXo.o.o.o.o.o.o.o.o.o.o.o.o.o.o.o.o.o.o.o.o.o.o.o.o.o.o.o.o.o.o.o.o.o.o.o.o.o.o.o.o.o.o.o.o.o.o.o.o.o.0 MXw w w MX  ",
"nXMXw w w w cXnX0 0 0 0 0 0 0 0 0 0 0 0 0 0 0 0 0 0 0 0 0 0 0 0 0 0 0 0 0 0 0 0 0 0 0 0 0 0 0 0 0 0 0 0 0 0 0 0 0 0 w w w MXw   ",
"nXw w w MXMXw w w MXw MXw MXw w w w w w w w w MXMXw w MXw w w w w w MXMXw w MXw w w w w w w MXw MXw MXw w w w w w w w w MXw w   ",
"nXMXw w w MXMXw MXw MXw w w MXw w MXw w w w w MXw w w w MXw w w w w MXw w w w MXw w w MXw MXw MXw w w MXw w MXw w w w w w MXw   ",
"nXw w w w w w MXw w w w w w w w MXw MXw w w w w w w w MXw w w w w w w w w w MXw w w w w MXw w w w w w w w MXw MXw w w w w w w   ",
"nXw w w w w w w w MXw w w w w MXw w MXw w w MXw MXw MXw w w MXw w w w MXw w w w w MXw w w w MXw w w w w MXw w MXw w MXw w w w   ",
"cX                                                                                                                              ",
"                                                                                                                                "
};
